<svg width="104" height="100" viewBox="0 0 104 100" fill="none" xmlns="http://www.w3.org/2000/svg">
<path d="M3.58771 44.25C1.53344 47.8081 1.53344 52.1919 3.58771 55.75L22.8142 89.0513C24.8685 92.6094 28.6649 94.8013 32.7735 94.8013H71.2265C75.3351 94.8013 79.1315 92.6094 81.1858 89.0513L100.412 55.75C102.467 52.1919 102.467 47.8081 100.412 44.25L81.1858 10.9487C79.1315 7.39062 75.3351 5.19873 71.2265 5.19873H32.7735C28.6649 5.19873 24.8685 7.39062 22.8142 10.9487L3.58771 44.25Z" stroke="#00B1AA" stroke-width="3"/>
<path d="M54.6724 78.5845C56.1582 78.6663 56.9877 79.3621 56.9999 80.5105C57.0101 81.6708 56.2051 82.3627 54.6378 82.4863C54.6378 82.7155 54.648 82.9508 54.6378 83.1841C54.6133 83.6745 54.3341 83.9855 53.845 83.9895C52.2696 84.0035 50.6942 84.0035 49.1187 83.9895C48.6541 83.9855 48.3708 83.6785 48.3422 83.218C48.328 82.9807 48.3402 82.7415 48.3402 82.4683C47.5719 82.4883 46.8585 82.3567 46.4387 81.7306C46.1921 81.3638 46.0107 80.8813 46.0005 80.4467C45.9761 79.3401 46.8096 78.6962 48.3076 78.5726V77.0733C47.5719 77.0932 46.8585 76.9596 46.4387 76.3356C46.1921 75.9687 46.0107 75.4863 46.0005 75.0516C45.9761 73.9451 46.8096 73.3011 48.3076 73.1775V71.6782C47.5719 71.6982 46.8585 71.5646 46.4387 70.9405C46.1921 70.5737 46.0107 70.0912 46.0005 69.6566C45.9761 68.5501 46.8096 67.9061 48.3076 67.7825V66.2832C47.5719 66.3031 46.8585 66.1695 46.4387 65.5455C46.1921 65.1786 46.0107 64.6962 46.0005 64.2615C45.9761 63.155 46.8117 62.511 48.3076 62.3874V60.8881C47.5719 60.9081 46.8585 60.7745 46.4387 60.1505C46.1921 59.7836 46.0107 59.3011 46.0005 58.8665C45.9761 57.76 46.8117 57.114 48.3076 56.9924V55.4931C47.5719 55.513 46.8585 55.3794 46.4387 54.7554C46.1921 54.3886 46.0107 53.9061 46.0005 53.4714C45.9761 52.3649 46.8096 51.7209 48.1731 51.6073C48.491 50.3054 48.7947 49.0334 49.1106 47.7654C49.2614 47.1593 49.4774 47.0038 50.1133 47.0018C51.0651 46.9978 52.0169 47.0018 52.9686 47.0018C53.4476 47.0018 53.737 47.2271 53.8511 47.6776C54.1018 48.6566 54.3667 49.6335 54.595 50.6184C54.6663 50.9254 54.6419 51.2524 54.6643 51.6173C55.4163 51.5894 56.1398 51.7329 56.5617 52.3809C56.8022 52.7517 56.9734 53.2382 56.9754 53.6728C56.9775 54.7714 56.1276 55.4133 54.6378 55.505V57.0143C55.4163 56.9884 56.1419 57.1319 56.5617 57.7799C56.8022 58.1507 56.9734 58.6372 56.9734 59.0718C56.9754 60.1684 56.1297 60.8064 54.6358 60.9041V62.4113C55.4163 62.3874 56.1419 62.529 56.5617 63.1769C56.8022 63.5478 56.9714 64.0342 56.9734 64.4689C56.9734 65.5634 56.1317 66.1994 54.6358 66.2991V67.8044C55.4163 67.7805 56.1419 67.924 56.5617 68.572C56.8022 68.9428 56.9714 69.4293 56.9714 69.8659C56.9714 70.9585 56.1337 71.5905 54.6663 71.6942V73.1994C55.4163 73.1795 56.1419 73.3211 56.5617 73.971C56.8022 74.3419 56.9714 74.8303 56.9714 75.265C56.9714 76.3575 56.1378 76.9836 54.6704 77.0932V78.5925L54.6724 78.5845ZM49.9095 51.6412C49.9095 51.8446 49.9095 52.0041 49.9095 52.1616C49.9034 52.9092 49.6425 53.1604 48.866 53.1624C48.5868 53.1624 48.2974 53.1166 48.0345 53.1784C47.8552 53.2202 47.7125 53.4136 47.5535 53.5412C47.7084 53.6708 47.847 53.8861 48.0182 53.916C48.3687 53.9759 48.7376 53.924 49.0963 53.94C49.5895 53.9619 49.8769 54.247 49.9054 54.7295C49.9177 54.9647 49.9075 55.202 49.9075 55.4452H50.7186V53.9599H52.2818V55.4413H53.0624C53.0624 55.2319 53.0603 55.0565 53.0624 54.881C53.0726 54.2171 53.3436 53.9459 54.0142 53.936C54.326 53.932 54.646 53.9798 54.9455 53.918C55.1208 53.8822 55.2614 53.6788 55.4184 53.5512C55.2614 53.4236 55.1208 53.2142 54.9476 53.1823C54.6133 53.1225 54.2628 53.1724 53.9184 53.1624C53.3701 53.1445 53.0848 52.8574 53.0644 52.3171C53.0563 52.0978 53.0644 51.8804 53.0644 51.6432H49.9116L49.9095 51.6412ZM49.9095 57.0362C49.9095 57.2416 49.9095 57.4011 49.9095 57.5586C49.9034 58.3043 49.6425 58.5555 48.864 58.5595C48.5848 58.5595 48.2954 58.5136 48.0325 58.5754C47.8531 58.6173 47.7125 58.8127 47.5535 58.9383C47.7084 59.0679 47.849 59.2812 48.0202 59.3111C48.3708 59.3709 48.7397 59.3191 49.0984 59.333C49.5916 59.355 49.8789 59.6401 49.9054 60.1245C49.9177 60.3598 49.9075 60.5951 49.9075 60.8383H50.7186V59.353H52.2818V60.8323H53.0603C53.0603 60.621 53.0583 60.4455 53.0603 60.2701C53.0705 59.6062 53.3416 59.335 54.0142 59.327C54.326 59.3231 54.646 59.3709 54.9455 59.3091C55.1208 59.2732 55.2614 59.0679 55.4163 58.9403C55.2594 58.8127 55.1188 58.6033 54.9435 58.5734C54.6093 58.5136 54.2587 58.5634 53.9143 58.5535C53.3661 58.5355 53.0807 58.2484 53.0624 57.7061C53.0542 57.4868 53.0624 57.2695 53.0624 57.0342H49.9095V57.0362ZM49.9095 62.4233C49.9095 62.6366 49.9095 62.8101 49.9095 62.9816C49.9014 63.6774 49.6344 63.9465 48.9353 63.9545C48.6398 63.9585 48.3321 63.9066 48.0549 63.9724C47.8674 64.0183 47.7186 64.2256 47.5535 64.3632C47.7166 64.4848 47.8674 64.6802 48.0488 64.7101C48.383 64.7659 48.7356 64.7161 49.078 64.7301C49.5977 64.75 49.8851 65.0351 49.9075 65.5495C49.9177 65.7828 49.9075 66.016 49.9075 66.2453H50.7044V64.762H52.2838V66.2413H53.0603C53.0603 66.0399 53.0603 65.8665 53.0603 65.693C53.0685 64.9992 53.3375 64.736 54.0406 64.7281C54.3525 64.7241 54.6724 64.7679 54.972 64.7101C55.1371 64.6782 55.2696 64.4828 55.4163 64.3632C55.2676 64.2276 55.1371 64.0163 54.9639 63.9764C54.6847 63.9106 54.379 63.9585 54.0834 63.9565C53.3375 63.9525 53.0685 63.6953 53.0603 62.9835C53.0603 62.8001 53.0603 62.6167 53.0603 62.4253H49.9075L49.9095 62.4233ZM52.2696 71.6643C52.451 71.6643 52.5651 71.6683 52.6772 71.6643C52.8015 71.6583 52.9238 71.6403 53.0624 71.6284C53.0624 71.431 53.0624 71.2715 53.0624 71.112C53.0685 70.3863 53.3314 70.1291 54.0692 70.1251C54.3647 70.1231 54.6704 70.171 54.9496 70.1072C55.1249 70.0673 55.2614 69.8639 55.4163 69.7343C55.2574 69.6087 55.1167 69.4133 54.9374 69.3715C54.6745 69.3097 54.383 69.3555 54.1059 69.3555C53.3273 69.3515 53.0665 69.1023 53.0603 68.3567C53.0603 68.1872 53.0603 68.0177 53.0603 67.8483H49.9075C49.9075 68.0417 49.9075 68.2012 49.9075 68.3607C49.9014 69.0864 49.6364 69.3495 48.9068 69.3555C48.6113 69.3575 48.3056 69.3117 48.0243 69.3735C47.847 69.4133 47.7064 69.6127 47.5494 69.7423C47.7064 69.8699 47.847 70.0793 48.0223 70.1112C48.3565 70.171 48.7071 70.1211 49.0515 70.1311C49.5997 70.149 49.8851 70.4341 49.9054 70.9784C49.9136 71.1977 49.9054 71.417 49.9054 71.6384H50.7186V70.157H52.2655V71.6702L52.2696 71.6643ZM52.2879 75.5381V77.0593C52.4347 77.0593 52.5447 77.0633 52.6548 77.0593C52.7811 77.0553 52.9055 77.0434 53.0603 77.0314C53.0603 76.828 53.0603 76.6546 53.0603 76.4791C53.0685 75.7893 53.3396 75.5261 54.0447 75.5182C54.3402 75.5162 54.6439 75.562 54.9272 75.5022C55.1086 75.4643 55.3654 75.2909 55.3919 75.1453C55.4449 74.8562 55.1983 74.7446 54.9129 74.7466C54.6011 74.7506 54.2893 74.7526 53.9775 74.7466C53.3599 74.7346 53.0746 74.4595 53.0583 73.8654C53.0522 73.662 53.0583 73.4566 53.0583 73.2313H49.9054C49.9054 73.4307 49.9054 73.6042 49.9054 73.7776C49.8973 74.4714 49.6283 74.7386 48.9272 74.7466C48.6317 74.7506 48.328 74.7047 48.0447 74.7625C47.8633 74.8004 47.6024 74.9679 47.5719 75.1154C47.5128 75.4045 47.7614 75.5182 48.0447 75.5182C48.3565 75.5182 48.6683 75.5142 48.9802 75.5182C49.6181 75.5301 49.8952 75.8073 49.9054 76.4413C49.9095 76.6426 49.9054 76.842 49.9054 77.0334H50.7044V75.5361H52.2838L52.2879 75.5381ZM49.9095 78.6224C49.9095 78.8377 49.9095 79.0112 49.9095 79.1846C49.9014 79.8725 49.6283 80.1357 48.9211 80.1436C48.6908 80.1456 48.4625 80.1456 48.2322 80.1436C47.9306 80.1416 47.578 80.1157 47.5657 80.5184C47.5535 80.9252 47.902 80.9192 48.2077 80.9152C48.5033 80.9132 48.7988 80.9052 49.0923 80.9192C49.5875 80.9411 49.8769 81.2242 49.9054 81.7047C49.9197 81.94 49.9075 82.1772 49.9075 82.4284H50.7145V80.9391H52.2716V82.4245H53.0603C53.0603 82.2331 53.0603 82.0736 53.0603 81.9141C53.0665 81.1664 53.3273 80.9192 54.1059 80.9152C54.3851 80.9152 54.6745 80.9611 54.9374 80.8973C55.1167 80.8554 55.2574 80.66 55.4163 80.5344C55.2614 80.4048 55.1229 80.1915 54.9496 80.1616C54.5991 80.1018 54.2302 80.1556 53.8715 80.1376C53.3783 80.1157 53.0909 79.8286 53.0644 79.3461C53.0522 79.1109 53.0624 78.8756 53.0624 78.6204H49.9095V78.6224ZM50.1459 50.0482H52.83C52.6935 49.5199 52.5671 49.0314 52.4449 48.5609H50.5189C50.3925 49.0613 50.2723 49.5398 50.1459 50.0482Z" fill="#00B1AA"/>
<path d="M85.9069 32.0049C85.5914 30.2557 84.5203 28.7578 82.9708 27.8932C82.0684 27.3885 81.1138 27.1332 80.1331 27.1332C78.5113 27.1332 76.9618 27.8248 75.6515 29.1337L71.4612 33.3159C68.1131 36.6555 66.7284 38.0368 62.8698 41.9455C61.6921 43.1378 60.3617 43.2745 59.4614 43.2745C59.1197 43.2745 58.7399 43.2524 58.2696 43.2042L57.9983 43.176L57.9099 42.9187C57.8998 42.8885 57.8898 42.8664 57.8797 42.8382C57.8556 42.7759 57.8295 42.7075 57.8214 42.6171C57.8154 42.5467 57.8134 42.4763 57.8094 42.406C57.8074 42.3255 57.8034 42.2511 57.7953 42.1888C57.5662 40.5743 58.0626 39.4825 59.4031 38.6521C60.7777 37.7976 61.0008 36.185 61.0108 35.3004C61.049 31.9386 61.047 31.7717 61.0068 28.9809C60.9606 25.784 58.8162 23.0918 55.6711 22.2795C55.4239 22.2151 55.1767 22.1468 54.9295 22.0784L54.6682 22.006L49.1094 22L49.0752 22.0201C49.017 22.0563 48.9245 22.1046 48.81 22.1287C44.8609 22.937 42.6824 25.587 42.6784 29.5881C42.6784 30.3844 42.6844 31.1826 42.6904 31.9788C42.6945 32.4191 42.6985 32.6704 42.7005 32.8293C42.7032 33.0156 42.7005 33.1986 42.6925 33.3782C42.6864 33.5411 42.6744 33.8004 42.6583 34.2769C42.5759 36.6354 43.3818 38.252 45.1965 39.3639C45.3895 39.4825 45.8396 39.8022 45.8658 40.2345C45.9039 40.8678 45.8979 41.4992 45.8919 42.1084V42.1426C45.8899 42.3456 45.8879 42.5487 45.8879 42.7478V43.1097L45.5322 43.17C45.09 43.2444 44.666 43.2826 44.2721 43.2826C42.7306 43.2826 41.4565 42.7035 40.3733 41.5112C38.9705 39.9671 37.4612 38.4651 35.9982 37.0074C35.3711 36.3821 34.7441 35.7588 34.1231 35.1295L32.0752 33.0545C30.8654 31.828 30.5077 31.4741 30.1298 31.0981C29.7661 30.7382 29.3903 30.3642 28.2347 29.1961C26.7134 27.6559 24.9308 27.0507 22.9432 27.4026C20.5476 27.8228 18.9821 29.192 18.2907 31.4681C17.6074 33.712 18.1299 35.7306 19.8442 37.4678L23.8897 41.5655C27.2499 44.9675 29.4144 47.149 31.9225 49.6744C33.4559 51.2186 35.1038 52.8794 37.214 55.0086C37.6702 55.4711 37.8752 55.9697 37.8732 56.6292C37.8611 63.962 37.8611 71.3993 37.8611 78.5914V84H40.118L40.1221 83.8613C40.1221 83.8291 40.1221 83.7989 40.1221 83.7668V80.4955C40.1241 72.2056 40.1261 63.6322 40.102 55.1755C40.102 54.9463 39.9372 54.5924 39.7362 54.3873C36.3117 50.9029 34.1472 48.7153 31.6391 46.1839C30.158 44.688 28.5723 43.0876 26.5566 41.0468L23.3391 37.7875C23.1281 37.5744 22.915 37.3633 22.7 37.1501C22.2056 36.6596 21.6931 36.1549 21.2188 35.6201C20.3426 34.6288 20.0552 33.3038 20.4552 32.0733C20.8511 30.8488 21.8519 29.946 23.1341 29.6605C23.4034 29.6002 23.6727 29.57 23.9339 29.57C24.9328 29.57 25.8391 30.0003 26.7093 30.883C29.1149 33.3279 30.7468 34.9485 30.7629 34.9626L30.8654 35.0651C33.5986 37.8338 36.4262 40.6969 39.1996 43.5178C40.5803 44.9213 42.1378 45.5807 43.9847 45.5405C45.4618 45.5064 46.6757 45.5084 47.8473 45.5486H47.9076C47.9639 45.5486 48.0041 45.5486 48.0342 45.5425L48.1448 45.5305L48.1588 45.4199C48.1669 45.3656 48.1689 45.2952 48.1689 45.2128C48.1427 43.4877 48.1126 41.5333 48.1789 39.6252C48.205 38.8552 48.0202 38.4752 47.4695 38.1736C46.9088 37.8679 46.332 37.5161 45.9019 37.0174C45.293 36.3137 44.9895 35.7085 44.9755 35.1636L44.9654 34.7615C44.9091 32.588 44.9051 32.4593 44.9554 29.0412C44.9895 26.6607 46.7078 24.6882 48.9527 24.453C50.8619 24.2539 52.8414 24.2519 54.7325 24.451C57.0336 24.6922 58.7238 26.6466 58.7479 29.0975V29.1579C58.76 30.3281 58.7647 31.2717 58.762 31.9888V33.0022C58.758 33.6858 58.756 34.3714 58.756 35.0571C58.756 35.9759 58.3801 36.6957 57.6406 37.1964L57.3592 37.3854C56.8447 37.7312 56.3584 38.0569 55.9203 38.443C55.7334 38.6079 55.5646 38.9155 55.5605 39.1005C55.5244 40.7693 55.5304 42.4703 55.5364 44.1331L55.5404 45.259C55.5404 45.3053 55.5445 45.3535 55.5485 45.4058L55.5625 45.5345H55.6912C55.9826 45.5325 56.274 45.5305 56.5614 45.5285C57.0075 45.5245 57.4496 45.5204 57.8898 45.5204C58.5268 45.5204 59.0494 45.5285 59.5397 45.5446C61.465 45.6049 63.0868 44.9353 64.5318 43.4776C67.9242 40.0575 68.9572 39.0261 71.7185 36.2695L73.1876 34.8037C74.4778 33.5149 75.768 32.2261 77.0583 30.9353L77.1587 30.8347C77.3416 30.6518 77.5285 30.4628 77.7375 30.2858C78.4188 29.7128 79.2368 29.4092 80.1009 29.4092C81.7449 29.4092 83.1476 30.4909 83.5938 32.0994C83.9776 33.4868 83.5757 34.7494 82.3618 35.9619L80.7058 37.6146C78.9956 39.3236 78.4369 39.8806 75.8987 42.418L75.766 42.5507C71.8351 46.4815 67.9041 50.4143 63.9671 54.3411C63.6676 54.6407 63.5571 54.894 63.5571 55.278C63.5692 62.3676 63.5692 69.5737 63.5692 76.5566V83.6461C63.5692 83.7165 63.5712 83.7889 63.5752 83.8613L63.5812 83.998H65.8321V78.6276C65.8321 71.4134 65.8321 63.9539 65.822 56.601C65.822 55.9697 66.019 55.4912 66.4631 55.0488C72.44 49.0893 75.561 45.9668 81.2244 40.2988L83.8832 37.6387C84.1364 37.3854 84.3756 37.1461 84.5946 36.8888C85.7421 35.5356 86.2205 33.7582 85.9049 32.011L85.9069 32.0049Z" fill="#00B1AA"/>
</svg>
