<svg width="104" height="100" viewBox="0 0 104 100" fill="none" xmlns="http://www.w3.org/2000/svg">
<path d="M3.58771 44.25C1.53344 47.8081 1.53344 52.1919 3.58771 55.75L22.8142 89.0513C24.8685 92.6094 28.6649 94.8013 32.7735 94.8013H71.2265C75.3351 94.8013 79.1315 92.6094 81.1858 89.0513L100.412 55.75C102.467 52.1919 102.467 47.8081 100.412 44.25L81.1858 10.9487C79.1315 7.39062 75.3351 5.19873 71.2265 5.19873H32.7735C28.6649 5.19873 24.8685 7.39062 22.8142 10.9487L3.58771 44.25Z" stroke="#00B1AA" stroke-width="3"/>
<path d="M43.9433 40.8763C44.221 39.9956 44.4616 39.2321 44.6934 38.4974C44.4681 37.7892 44.2254 37.0257 43.9346 36.1184C43.2676 36.1184 42.4584 36.1228 41.6515 36.1184C39.9479 36.1073 39.0382 35.1779 39.0295 33.4429C39.0295 33.0888 39.0207 32.7369 39.0295 32.3828C39.0732 30.9599 40.0026 30.0017 41.4044 29.9552C42.1479 29.9308 42.8936 29.9375 43.6371 29.9552C43.9892 29.9618 44.0898 29.8268 44.1554 29.4728C44.2735 28.8243 44.4966 28.1936 44.6825 27.5297C44.4703 26.8747 44.2254 26.1134 43.9302 25.1928C43.3004 25.1928 42.4978 25.195 41.6952 25.1928C39.9523 25.1862 39.106 24.2501 39.012 22.4841C38.8764 19.9414 39.8845 18.795 42.4759 18.9964C43.0008 19.0362 43.5322 19.003 44.0417 19.003C44.5338 16.3032 44.9077 16 47.6172 16C50.6416 16 53.6682 16 56.6926 16C59.0478 16 59.647 16.5355 59.9226 18.9898C60.6639 18.9898 61.4206 18.9898 62.1772 18.9898C64.0557 18.9964 64.9676 19.9126 64.972 21.7981C64.972 22.1521 64.9873 22.5062 64.9676 22.8581C64.8911 24.2169 63.9092 25.1707 62.5599 25.1884C61.7005 25.1994 60.8411 25.1906 60.0538 25.1906C59.7936 26.0271 59.5508 26.8105 59.3125 27.574C59.5355 28.2777 59.7783 29.0434 60.0647 29.9463C60.7055 29.9463 61.4862 29.9419 62.2691 29.9463C64.0688 29.9574 64.8998 30.8692 64.9895 32.6838C65.1076 35.0451 64.2438 36.3264 61.6261 36.1206C61.0772 36.0786 60.5196 36.114 60.0625 36.114C59.7936 36.9748 59.5552 37.7383 59.3103 38.5195L60.0735 40.8697C60.6727 40.8697 61.4512 40.8697 62.2297 40.8697C64.0667 40.8719 64.9676 41.7837 64.972 43.647C64.972 43.9303 64.9764 44.2113 64.972 44.4946C64.948 46.0658 63.9857 47.0484 62.4396 47.0683C61.6086 47.0794 60.7776 47.0683 60.0625 47.0683C59.7848 47.9358 59.5421 48.6993 59.3081 49.4318C59.5333 50.1378 59.7783 50.899 60.0647 51.7953C60.7142 51.7953 61.4993 51.7909 62.2822 51.7953C64.0579 51.8064 64.972 52.7469 64.9742 54.5593C64.9742 54.7474 64.9742 54.9355 64.9742 55.1236C64.972 57.0976 64.1082 57.9784 62.1772 57.9828C61.4381 57.9828 60.6989 57.9828 59.9117 57.9828C59.8898 58.2794 59.8701 58.5073 59.8548 58.7353C59.7695 60.0188 58.8882 60.9638 57.6067 60.9748C53.8847 61.008 50.1605 61.008 46.4385 60.977C45.0892 60.966 44.221 60.0122 44.1467 58.6313C44.1357 58.4476 44.1204 58.2639 44.1008 57.9828C43.2741 57.9828 42.4694 57.9873 41.6646 57.9828C39.9676 57.974 39.1082 57.0313 39.0185 55.3095C38.8786 52.6119 39.9545 51.6028 42.5197 51.7864C43.0248 51.8219 43.5366 51.7909 43.9433 51.7909C44.2123 50.9389 44.455 50.1754 44.6978 49.4141C44.4769 48.7325 44.232 47.9712 43.9389 47.0639C43.3135 47.0639 42.5328 47.0639 41.7521 47.0639C39.9742 47.0595 39.0426 46.1212 39.0338 44.322C39.0338 43.9679 39.0229 43.616 39.036 43.262C39.0907 41.8567 40.0617 40.8874 41.4503 40.8653C42.3097 40.852 43.1692 40.8631 43.9477 40.8631L43.9433 40.8763ZM57.6264 39.6658H46.3773C46.3773 39.9624 46.3773 40.2169 46.3773 40.4714C46.3663 42.286 45.5156 43.1358 43.7071 43.138C42.9264 43.138 42.1479 43.138 41.3628 43.138V44.8155C42.2682 44.8155 43.1254 44.8066 43.9827 44.8155C45.4282 44.831 46.3226 45.7206 46.3751 47.1834C46.3882 47.5308 46.3751 47.8783 46.3751 48.2412H57.622C57.622 47.9712 57.622 47.7632 57.622 47.553C57.6373 45.6188 58.4377 44.8133 60.3512 44.8133C61.1079 44.8133 61.8667 44.8133 62.6452 44.8133V43.1358C61.7464 43.1358 60.8892 43.1425 60.0319 43.1358C58.5908 43.1225 57.6789 42.2241 57.6264 40.7701C57.6133 40.4205 57.6264 40.0686 57.6264 39.6658V39.6658ZM46.3773 28.7248C46.3773 29.0191 46.3773 29.2492 46.3773 29.4772C46.3663 31.3472 45.5266 32.2036 43.6962 32.208C42.933 32.208 42.1676 32.208 41.3585 32.208V33.7704C41.4437 33.8058 41.4875 33.839 41.529 33.839C42.3666 33.8479 43.2041 33.8324 44.0395 33.8633C45.4479 33.9165 46.3204 34.8127 46.3729 36.2357C46.386 36.5831 46.3729 36.9306 46.3729 37.3178H57.6198C57.6198 37.0456 57.6198 36.8177 57.6198 36.5875C57.6286 34.7242 58.4771 33.8611 60.3053 33.8567C61.0685 33.8567 61.8339 33.8567 62.6387 33.8567V32.208C61.7595 32.208 60.9263 32.2169 60.0932 32.208C58.5339 32.1881 57.6461 31.2786 57.622 29.6896C57.6177 29.3732 57.622 29.0589 57.622 28.7248H46.3751H46.3773ZM57.5892 18.2971H46.4341C46.4123 18.3967 46.3882 18.4631 46.3838 18.5295C46.2657 20.5809 45.5506 21.2581 43.4994 21.2581C42.7908 21.2581 42.0823 21.2581 41.3606 21.2581V22.9289C42.2682 22.9289 43.1276 22.9201 43.9849 22.9289C45.415 22.9466 46.3248 23.8539 46.3729 25.3101C46.386 25.673 46.3729 26.0382 46.3729 26.3967H57.6198C57.6198 26.0979 57.6198 25.8434 57.6198 25.5889C57.6286 23.7787 58.4836 22.9267 60.29 22.9267C61.0685 22.9267 61.8492 22.9267 62.6321 22.9267V21.2559C61.7224 21.2559 60.8651 21.2669 60.0079 21.2537C58.5471 21.2293 57.6854 20.3663 57.6198 18.8813C57.6111 18.6976 57.598 18.514 57.5848 18.2971H57.5892ZM57.6242 50.6136H46.3751C46.3751 50.9145 46.3751 51.169 46.3751 51.4235C46.362 53.205 45.52 54.0548 43.753 54.0636C42.968 54.068 42.1851 54.0636 41.3563 54.0636V55.73C42.2726 55.73 43.1517 55.7189 44.0308 55.7322C45.332 55.7544 46.2154 56.5776 46.362 57.8855C46.3838 58.0891 46.3991 58.2927 46.4166 58.4985H57.5805C57.7773 56.3762 58.4727 55.7322 60.524 55.7278C61.2172 55.7278 61.9104 55.7278 62.643 55.7278V54.0614C61.7224 54.0614 60.8454 54.0769 59.9685 54.057C58.558 54.026 57.6789 53.1342 57.6264 51.7068C57.6133 51.3593 57.6264 51.0097 57.6264 50.6113L57.6242 50.6136Z" fill="#00B1AA"/>
<path d="M30.1949 80H27.9749V79.234C27.9749 77.0086 27.9923 74.7832 27.9575 72.5599C27.951 72.1769 27.8055 71.7257 27.5752 71.4263C24.9012 67.9572 22.2208 64.4925 19.4925 61.0675C18.3695 59.6565 17.9068 58.1355 18.0154 56.3239C18.3586 50.5501 18.6323 44.7742 18.9125 38.996C19.0559 36.0376 21.6734 34.2018 24.2083 35.342C25.6789 36.0024 26.3979 37.2196 26.4913 38.8287C26.6455 41.4702 26.7976 44.1116 26.954 46.753C27.0148 47.8008 27.0843 48.8486 27.1473 49.8655C27.2385 49.914 27.2841 49.9602 27.3189 49.9536C29.2152 49.5948 30.6532 50.3476 31.9456 51.7189C34.0027 53.9047 36.1336 56.0201 38.2602 58.1377C41.4446 61.3074 43.0151 65.1419 42.9999 69.6588C42.989 72.8439 42.9999 76.029 42.9999 79.2142C42.9999 79.4453 42.9999 79.6764 42.9999 79.9626H40.7799C40.7799 79.672 40.7799 79.3991 40.7799 79.1239C40.7582 75.4721 40.8212 71.8159 40.6843 68.1663C40.5692 65.1331 39.318 62.496 37.2393 60.3191C34.8129 57.7789 32.3193 55.3003 29.8451 52.8063C28.9306 51.8862 27.7642 51.8488 26.9453 52.6743C26.1264 53.4997 26.1872 54.7214 27.1147 55.6613C29.1891 57.7635 31.2723 59.8568 33.3749 61.9788C32.8123 62.4982 32.291 62.9803 31.7328 63.4954C31.7241 63.4888 31.6133 63.4117 31.5177 63.3149C29.5063 61.2788 27.4861 59.2515 25.4877 57.2021C23.9629 55.6393 23.7413 53.7176 24.8035 51.807C24.9295 51.5803 24.999 51.2809 24.9838 51.0212C24.76 47.0238 24.5233 43.0264 24.2756 39.0312C24.2061 37.9108 23.6044 37.2725 22.6834 37.2791C21.7646 37.2857 21.1933 37.9482 21.1347 39.0686C20.824 45.0317 20.5178 50.9948 20.205 56.9556C20.1528 57.9484 20.5286 58.7628 21.1282 59.5266C24.0063 63.1894 26.8779 66.8588 29.7213 70.5502C29.9907 70.9024 30.1688 71.4241 30.1753 71.8688C30.2188 74.3275 30.1949 76.7862 30.1949 79.245C30.1949 79.4739 30.1949 79.705 30.1949 79.9934V80Z" fill="#00B1AA"/>
<path d="M63.2168 80H61.0647C61.0409 79.8898 61.0039 79.8017 61.0039 79.7114C61.0213 75.8449 60.9475 71.974 61.0908 68.112C61.2254 64.5143 62.6674 61.3858 65.1257 58.7972C67.5775 56.2129 70.1096 53.7102 72.6092 51.1722C73.7645 50.0001 75.1631 49.6498 76.8309 49.9847C76.9025 48.8831 76.9742 47.8433 77.035 46.8034C77.1914 44.1596 77.3238 41.5159 77.4997 38.8722C77.6452 36.6933 79.0329 35.1555 80.9201 35.0123C83.1373 34.8449 84.9246 36.4047 85.0527 38.6981C85.3155 43.3533 85.5392 48.0129 85.778 52.6703C85.8432 53.9569 85.8758 55.2479 85.9778 56.5324C86.1081 58.1583 85.663 59.5683 84.6618 60.8417C81.8973 64.36 79.1459 67.8894 76.4161 71.4365C76.1837 71.7361 76.0404 72.1877 76.0339 72.5711C75.9991 74.7742 76.0165 76.9773 76.0165 79.1804V79.9868H73.8405C73.8253 79.7731 73.7993 79.5506 73.7993 79.328C73.7971 76.7967 73.7841 74.2653 73.8145 71.7339C73.8188 71.3704 73.9621 70.9452 74.1815 70.661C77.0024 67.0082 79.8299 63.362 82.6987 59.7467C83.5152 58.7179 83.8344 57.6427 83.7562 56.3143C83.4153 50.5839 83.1482 44.847 82.8615 39.1123C82.829 38.4756 82.6965 37.905 82.1384 37.526C81.1829 36.8761 79.9428 37.4093 79.7713 38.599C79.641 39.5 79.6258 40.4187 79.5693 41.3308C79.3782 44.4879 79.1806 47.645 79.0199 50.8043C79.0003 51.1942 79.1154 51.6348 79.2979 51.9807C80.1405 53.5802 80.0536 55.5255 78.8158 56.8298C76.655 59.1078 74.3965 61.2889 72.2074 63.481C71.734 63.0073 71.2345 62.505 70.6938 61.9631C70.8111 61.8353 70.9761 61.648 71.152 61.4696C73.0956 59.4956 75.0414 57.526 76.9851 55.5498C77.5758 54.9505 77.7777 54.2345 77.5084 53.4238C77.2478 52.6395 76.6745 52.1085 75.8754 52.1327C75.3259 52.1482 74.644 52.353 74.2618 52.7276C71.6558 55.2876 69.0586 57.8608 66.5677 60.5354C64.2636 63.0073 63.2277 66.0454 63.2212 69.4426C63.2147 72.5843 63.2212 75.7237 63.2212 78.8654C63.2212 79.2157 63.2212 79.566 63.2212 80H63.2168Z" fill="#00B1AA"/>
</svg>
