<svg width="35" height="32" viewBox="0 0 35 32" fill="none" xmlns="http://www.w3.org/2000/svg">
<path d="M22.7855 0H12.2145C9.73914 0 7.45276 1.31367 6.21405 3.44603L0.927462 12.554C-0.309154 14.6863 -0.309154 17.3137 0.927462 19.446L6.21405 28.554C7.45066 30.6863 9.73914 32 12.2145 32H22.7855C25.2609 32 27.5472 30.6863 28.786 28.554L34.0725 19.446C35.3092 17.3137 35.3092 14.6863 34.0725 12.554L28.786 3.44603C27.5472 1.31367 25.2609 0 22.7855 0Z" fill="#80C9C4"/>
<path d="M16.2544 9.7C16.1214 11.106 15.3424 12.607 13.9934 13.234V14.792C14.7724 14.735 15.8554 14.298 16.2544 13.823V23H18.6294V9.7H16.2544Z" fill="white"/>
</svg>
