<svg width="35" height="32" viewBox="0 0 35 32" fill="none" xmlns="http://www.w3.org/2000/svg">
<path d="M22.7855 0H12.2145C9.73914 0 7.45276 1.31367 6.21405 3.44603L0.927462 12.554C-0.309154 14.6863 -0.309154 17.3137 0.927462 19.446L6.21405 28.554C7.45066 30.6863 9.73914 32 12.2145 32H22.7855C25.2609 32 27.5472 30.6863 28.786 28.554L34.0725 19.446C35.3092 17.3137 35.3092 14.6863 34.0725 12.554L28.786 3.44603C27.5472 1.31367 25.2609 0 22.7855 0Z" fill="#80C9C4"/>
<path d="M20.6586 20.587H15.9656C16.2506 19.96 16.7066 19.352 17.4286 18.478C18.7016 16.939 19.4996 16.084 20.0126 14.83C20.9816 12.455 19.9176 9.586 16.8586 9.586C14.7116 9.586 13.3056 11.201 12.9636 13.196L15.0536 13.652C15.2816 12.645 15.9656 11.847 16.8396 11.885C17.8086 11.942 18.2836 13.025 17.6756 14.336C17.2576 15.229 16.7826 15.685 15.2816 17.566C14.5406 18.478 12.9826 20.416 12.9826 23H20.6586V20.587Z" fill="white"/>
</svg>
