<svg width="65" height="46" viewBox="0 0 65 46" fill="none" xmlns="http://www.w3.org/2000/svg">
<path d="M63.6389 7.2174C63.271 5.82456 62.5541 4.56354 61.5646 3.56842C60.5472 2.54269 59.3002 1.80896 57.9414 1.43649C52.8558 0.0142477 32.4811 0.014248 32.4811 0.014248C23.987 -0.0882896 15.4951 0.362696 7.05322 1.36466C5.69434 1.76465 4.44968 2.51477 3.42996 3.5483C2.42801 4.57117 1.70228 5.83251 1.32316 7.21453C0.412451 12.4201 -0.0300335 17.7056 0.00167131 23C-0.0308243 28.2896 0.410575 33.5734 1.32316 38.7854C1.69415 40.1617 2.41718 41.4173 3.42184 42.4316C4.42649 43.4458 5.67757 44.1785 7.05322 44.5664C12.2065 45.9857 32.4811 45.9857 32.4811 45.9857C40.9859 46.0884 49.4886 45.6374 57.9414 44.6353C59.3002 44.2628 60.5472 43.5291 61.5646 42.5034C62.5538 41.5085 63.2698 40.2473 63.6362 38.8544C64.5707 33.6509 65.0251 28.3631 64.9929 23.0661C65.0632 17.7466 64.6094 12.4339 63.6389 7.21453V7.2174Z" fill="#E00000"/>
<path d="M26 33V13L43 23.0015L26 33Z" fill="white"/>
</svg>
